<svg viewBox="0 0 320 260" xmlns="http://www.w3.org/2000/svg" role="img" aria-label="네모가 동그라미의 생각도 존중하겠다고 말하고 둘이 서로 다른 깃발을 들고 웃는 장면">
  <title>네모가 동그라미의 생각도 존중하겠다고 말하고 둘이 서로 다른 깃발을 들고 웃는 장면</title>
  <rect width="320" height="260" fill="#ffffff"/>
  <rect y="200" width="320" height="60" fill="#eef2f7"/>

  <!-- 패널 번호 -->
  <circle cx="22" cy="22" r="13" fill="#e11d2a"/>
  <text x="22" y="27" text-anchor="middle" font-family="'Pretendard', sans-serif" font-size="14" font-weight="bold" fill="#ffffff">4</text>

  <!-- 반짝임 -->
  <path d="M 285,32 L 288,40 L 296,43 L 288,46 L 285,54 L 282,46 L 274,43 L 282,40 Z" fill="#e11d2a" opacity="0.5"/>

  <!-- 동그라미 (자기 깃발 들고 웃음) -->
  <g transform="translate(95,206)">
    <ellipse cx="0" cy="2" rx="24" ry="5" fill="#1f2937" opacity="0.08"/>
    <line x1="-10" y1="-32" x2="-11" y2="-3" stroke="#1f2937" stroke-width="3" stroke-linecap="round"/>
    <line x1="10" y1="-32" x2="11" y2="-3" stroke="#1f2937" stroke-width="3" stroke-linecap="round"/>
    <ellipse cx="-11" cy="-2" rx="6" ry="3" fill="#1f2937"/>
    <ellipse cx="11" cy="-2" rx="6" ry="3" fill="#1f2937"/>
    <circle cx="0" cy="-57" r="28" fill="#ffffff" stroke="#1f2937" stroke-width="3"/>
    <path d="M -3,-85 Q 4,-96 -2,-101 Q -7,-105 -1,-109" stroke="#e11d2a" stroke-width="3" stroke-linecap="round" fill="none"/>
    <path d="M -26,-60 Q -30,-48 -24,-38" stroke="#1f2937" stroke-width="3" stroke-linecap="round" fill="none"/>
    <path d="M 26,-60 Q 36,-70 40,-90" stroke="#1f2937" stroke-width="3" stroke-linecap="round" fill="none"/>
    <circle cx="-24" cy="-38" r="4" fill="#1f2937"/>
    <circle cx="40" cy="-90" r="4" fill="#1f2937"/>
    <line x1="40" y1="-92" x2="40" y2="-130" stroke="#1f2937" stroke-width="2.5" stroke-linecap="round"/>
    <polygon points="40,-130 68,-120 40,-110" fill="#60a5fa" stroke="#1f2937" stroke-width="1.6" stroke-linejoin="round"/>
    <circle cx="-19" cy="-56" r="3" fill="#e11d2a" opacity="0.3"/>
    <circle cx="19" cy="-56" r="3" fill="#e11d2a" opacity="0.3"/>
    <circle cx="-9" cy="-61" r="2.5" fill="#1f2937"/>
    <circle cx="9" cy="-61" r="2.5" fill="#1f2937"/>
    <g fill="none" stroke="#1f2937" stroke-width="2"><circle cx="-9" cy="-61" r="7"/><circle cx="9" cy="-61" r="7"/><path d="M -2,-61 h4"/></g>
    <line x1="-13" y1="-67" x2="-5" y2="-65" stroke="#1f2937" stroke-width="2" stroke-linecap="round"/>
    <line x1="5" y1="-65" x2="13" y2="-67" stroke="#1f2937" stroke-width="2" stroke-linecap="round"/>
    <path d="M -7,-51 Q 0,-46 7,-51" stroke="#1f2937" stroke-width="2" stroke-linecap="round" fill="none"/>
  </g>

  <!-- 네모 (팀 깃발 들고 웃음) -->
  <g transform="translate(220,206)">
    <ellipse cx="0" cy="2" rx="26" ry="5" fill="#1f2937" opacity="0.08"/>
    <line x1="-10" y1="-30" x2="-13" y2="-3" stroke="#e11d2a" stroke-width="3" stroke-linecap="round"/>
    <line x1="10" y1="-30" x2="14" y2="-3" stroke="#e11d2a" stroke-width="3" stroke-linecap="round"/>
    <rect x="-19" y="-6" width="10" height="6" rx="2" fill="#e11d2a"/>
    <rect x="9" y="-6" width="10" height="6" rx="2" fill="#e11d2a"/>
    <rect x="-28" y="-85" width="56" height="56" rx="10" fill="#f3f4f6" stroke="#1f2937" stroke-width="3"/>
    <polyline points="-24,-85 -17,-97 -9,-85 0,-98 9,-85 17,-97 24,-85" fill="none" stroke="#e11d2a" stroke-width="3" stroke-linejoin="round" stroke-linecap="round"/>
    <path d="M -26,-65 Q -32,-52 -28,-40" stroke="#e11d2a" stroke-width="3" stroke-linecap="round" fill="none"/>
    <rect x="-33" y="-42" width="8" height="8" rx="3" fill="#e11d2a"/>
    <path d="M 26,-68 Q 38,-80 44,-100" stroke="#e11d2a" stroke-width="3" stroke-linecap="round" fill="none"/>
    <rect x="40" y="-106" width="8" height="8" rx="3" fill="#e11d2a"/>
    <line x1="44" y1="-104" x2="44" y2="-140" stroke="#1f2937" stroke-width="2.5" stroke-linecap="round"/>
    <polygon points="44,-140 72,-130 44,-120" fill="#e11d2a" stroke="#1f2937" stroke-width="1.6" stroke-linejoin="round"/>
    <circle cx="-10" cy="-62" r="3.2" fill="#1f2937"/>
    <circle cx="10" cy="-62" r="3.2" fill="#1f2937"/>
    <g fill="none" stroke="#1f2937" stroke-width="2"><circle cx="-10" cy="-62" r="7"/><circle cx="10" cy="-62" r="7"/><path d="M -3,-62 h6"/></g>
    <line x1="-15" y1="-72" x2="-6" y2="-70" stroke="#1f2937" stroke-width="2" stroke-linecap="round"/>
    <line x1="6" y1="-70" x2="15" y2="-72" stroke="#1f2937" stroke-width="2" stroke-linecap="round"/>
    <path d="M -7,-48 Q 0,-43 7,-48" stroke="#1f2937" stroke-width="2" stroke-linecap="round" fill="none"/>
  </g>

  <!-- 말풍선: 네모 (2줄) -->
  <path d="M 130,8 H 300 A14,14 0 0 1 314,22 V 56 A14,14 0 0 1 300,70 H 234 L 225,102 L 216,70 H 130 A14,14 0 0 1 116,56 V 22 A14,14 0 0 1 130,8 Z" fill="#ffffff" stroke="#1f2937" stroke-width="2"/>
  <text x="215" y="39" text-anchor="middle" dominant-baseline="middle" font-family="'Pretendard', sans-serif" font-size="15" fill="#1f2937">
    <tspan x="215" dy="-11">네 생각도</tspan>
    <tspan x="215" dy="22">존중할게.</tspan>
  </text>

  <!-- 캡션 -->
  <text x="160" y="250" text-anchor="middle" font-family="'Pretendard', sans-serif" font-size="12" fill="#64748b">제19조 양심의 자유</text>
</svg>
